<svg width="198" height="45" fill="none" xmlns="http://www.w3.org/2000/svg"><g clip-path="url('#clip0_892_4327')" fill="#D4D4D4"><path d="M103.29 24.01c-1.91 0-2.79 1-3.45 4.39a32.939 32.939 0 0 0-.73 4.27c-.07 1.55.49 2.13 1.95 2.13 2 0 2.79-1 3.48-4.39 0 0 .71-3.67.73-4.24.07-1.48-.43-2.16-2-2.16h.02Zm8.07 6.94c-1.56 7.08-5.38 9.38-11.08 9.38-5.37 0-8-2.4-8-7.58.129-1.646.38-3.28.75-4.89 1.48-7.2 5.42-9.39 11.08-9.39 5.34 0 8.36 2.17 8.09 7.59-.07 1.32-.82 4.89-.82 4.89h-.02ZM139.38 16.52h-7.31l.94-4.63 7.36-.22-.99 4.85Zm-4.8 23.26h-7l4.15-20.8h7l-4.15 20.8ZM178.32 30.88c.6-3.22 1.24-6.78 1.27-7.23.13-2.88-.84-5.18-5.24-5.18-5 0-12.67 1.72-12.67 1.72l-4 19.6h7l3.13-15.5a15.056 15.056 0 0 1 3.17-.32c1.81 0 1.5 1.45 1.25 2.73l-2.6 13.09h7l.48-2.37-2.65-3.55 3.86-2.99ZM20.92 26.04c2.38-1.27 3.78-3.6 3.93-7 .22-5.31-3.76-6.29-10.7-6.29H2.8l-.1.22 2.06 3.73L0 40.31h8.7c7 0 12-1.32 13.67-7.63.84-3.1.2-5.54-1.45-6.64Zm-10.54 8.62a17.416 17.416 0 0 1-1.93-.07l1.28-6.15h.39c3.93 0 5.33 0 5.24 2.15-.15 3.38-2.07 4.07-5 4.07h.02Zm.76-10.91h-.5l1.16-5.67h2c2.45 0 3.72.22 3.64 2-.18 3.6-2.23 3.67-6.3 3.67ZM35.71 23.58c-2.13 0-2.91 1.58-3.36 3.74l-.05.25h5.24c.24-1.27 1-4-1.83-4v.01Zm7.86 7.68h-12a7.82 7.82 0 0 0-.26 1.73c-.06 1.37.59 1.94 3.25 1.94 1.84 0 3.46-.11 7.35-.29l-.94 4.75a35.48 35.48 0 0 1-8.06.93c-9.69 0-8.74-6.74-7.72-11.93 1.02-5.19 3.39-9.93 11.46-9.93 6 0 7.88 3.45 7.69 7.84a28.992 28.992 0 0 1-.76 5M59.96 24.19h-5.91s-2.06 9.64-2.06 10.35c0 .71.22.83 1.16.83s4.07-.07 4.49-.11l-.9 4.46a44.741 44.741 0 0 1-6.71.61c-6 0-5.24-4.89-4.77-7.22l3.69-18.14 7.16-1.13-1.06 5.14h5.9l-.99 5.21ZM90.96 26.67l-2.63 13.12h-7c2.7-13.48 2.73-13.55 2.74-13.59.32-1.47.3-2.3-1.1-2.3-.816.031-1.626.162-2.41.39-.12.58-.32 1.48-.44 2.06l-2.68 13.44h-7l2.67-13.44c.31-1.4.55-2.45-1-2.45a7.58 7.58 0 0 0-2.51.39l-3.15 15.5h-7l3.87-19.55a56.9 56.9 0 0 1 12.62-1.72 4.43 4.43 0 0 1 3.6 1.27 27.997 27.997 0 0 1 6.85-1.27c5.17 0 5.57 3.56 4.57 8.2M149.41 24.01c-1.91 0-2.8 1-3.46 4.39a38.095 38.095 0 0 0-.73 4.27c-.09 1.55.49 2.13 2 2.13 2 0 2.79-1 3.49-4.39 0 0 .7-3.67.73-4.24.06-1.48-.43-2.16-2-2.16h-.03Zm8.11 6.94c-1.56 7.08-5.38 9.38-11.08 9.38-5.37 0-8-2.4-8-7.58.131-1.647.385-3.281.76-4.89 1.47-7.2 5.41-9.39 11.07-9.39 5.34 0 8.37 2.17 8.09 7.59a49.4 49.4 0 0 1-.87 4.89h.03ZM127.9 24.19h-5.91s-2.06 9.64-2.06 10.35c0 .71.23.83 1.17.83s4.06-.07 4.48-.11l-.9 4.46a44.607 44.607 0 0 1-6.71.61c-6 0-5.24-4.89-4.77-7.22l3.69-18.14 7.16-1.13-1.06 5.14h5.91l-1 5.21ZM197.17.45l-5.42 22h-7.5l2.87-22h10.05Z"/><path d="m187.97 25.64-11.12 8.56 7.81 10.51 11.13-8.56-7.82-10.51Z"/></g><defs><clipPath id="clip0_892_4327"><path fill="#fff" transform="translate(0 .45)" d="M0 0h197.17v44.26H0z"/></clipPath></defs></svg>