<svg width="252" height="24" fill="none" xmlns="http://www.w3.org/2000/svg"><g clip-path="url('#clip0_619_8481')" fill="#D4D4D4"><path d="m12.9 10.26 2.77-2.2.34-.28a11.928 11.928 0 0 0 2.18-2.13 3.22 3.22 0 0 0 .61-1.89 3.1 3.1 0 0 0-1.78-2.68 7.34 7.34 0 0 0-2.23-.83l-.65-.11A12.82 12.82 0 0 0 12.32 0l.58 10.26ZM16 8.55l-.28.26-2 1.95 10.18.55a8.816 8.816 0 0 0-.13-1.3l-.12-.51a5.001 5.001 0 0 0-.85-1.75 3.31 3.31 0 0 0-2.72-1.39 4 4 0 0 0-1.93.48A10.72 10.72 0 0 0 16 8.55ZM23.9 11.45l-11 .6-.62 11.15a.63.63 0 0 0 .45-.22c.8-.982 1.682-1.892 2.64-2.72a1.27 1.27 0 0 0 .24-1.65l-.12-.22a16.461 16.461 0 0 1-1.92-5.81l.64.39c.717.444 1.387.96 2 1.54.65.635 1.36 1.204 2.12 1.7a3.49 3.49 0 0 0 1.75.42 3.26 3.26 0 0 0 2.74-1.39 5.81 5.81 0 0 0 1-3.73l.08-.06ZM11.64 10.26l-2.78-2.2-.33-.28a11.61 11.61 0 0 1-2.18-2.13 3.22 3.22 0 0 1-.61-1.89 3.1 3.1 0 0 1 1.78-2.68A7.34 7.34 0 0 1 9.75.25l.65-.11A12.82 12.82 0 0 1 12.22 0l-.58 10.26ZM8.57 8.55l.28.26 2 1.95-10.25.55a8.8 8.8 0 0 1 .13-1.3l.12-.51a5 5 0 0 1 .84-1.75 3.34 3.34 0 0 1 2.73-1.39 4 4 0 0 1 1.93.48 10.72 10.72 0 0 1 2.22 1.71ZM.65 11.45l11 .6.62 11.15a.63.63 0 0 1-.45-.22 21.002 21.002 0 0 0-2.65-2.72 1.27 1.27 0 0 1-.24-1.65l.12-.22a16.672 16.672 0 0 0 1.92-5.81l-.64.39a12 12 0 0 0-2 1.54 13.817 13.817 0 0 1-2.13 1.7 3.45 3.45 0 0 1-1.74.42 3.3 3.3 0 0 1-2.75-1.39 5.94 5.94 0 0 1-1-3.73.17.17 0 0 1-.06-.06ZM47.42 18.96a14.849 14.849 0 0 1-4 2.24 12.87 12.87 0 0 1-4.34.72 10.64 10.64 0 0 1-4-.76 10.29 10.29 0 0 1-5.65-5.62 10.65 10.65 0 0 1-.78-4.07 10.52 10.52 0 0 1 .78-4.06 10.29 10.29 0 0 1 5.65-5.62 10.64 10.64 0 0 1 4-.76 12.36 12.36 0 0 1 4.37.74 11.79 11.79 0 0 1 3.7 2.28l-2.32 2.87c-.844-.74-1.8-1.344-2.83-1.79a7.82 7.82 0 0 0-2.92-.56 6 6 0 0 0-4.59 2 7.47 7.47 0 0 0 0 9.82 6 6 0 0 0 4.59 2 8 8 0 0 0 2.36-.34 7.299 7.299 0 0 0 2.09-1v-3.68h-5.84l1.14-3.63h8.61l-.02 9.22ZM49.41 11.47a10.52 10.52 0 0 1 .78-4.06 10.29 10.29 0 0 1 5.65-5.62 10.64 10.64 0 0 1 4-.76 10.83 10.83 0 0 1 4.07.77 10.17 10.17 0 0 1 5.65 5.6 11.3 11.3 0 0 1 0 8.15 10.23 10.23 0 0 1-5.66 5.58 10.83 10.83 0 0 1-4.07.76 10.642 10.642 0 0 1-4-.76 10.36 10.36 0 0 1-3.38-2.23 10.161 10.161 0 0 1-2.27-3.39 10.58 10.58 0 0 1-.77-4.04Zm4 0a6.94 6.94 0 0 0 1.83 4.92 6.39 6.39 0 0 0 9 .17l.17-.17a7.49 7.49 0 0 0 0-9.82 6.36 6.36 0 0 0-9-.2l-.2.2a6.9 6.9 0 0 0-1.81 4.9h.01ZM72.74 1.47l3.94-.27v16.52h7.27l-.92 3.76H72.74V1.47ZM85.5 1.47h4.23c3.61 0 6.44.89 8.51 2.68a10.195 10.195 0 0 1 3.1 7.157 10.185 10.185 0 0 1-2.87 7.253l-.23.23c-2.07 1.8-4.9 2.69-8.49 2.69H85.5V1.47Zm4 16.27h.88a7.34 7.34 0 0 0 5.09-1.68 6.48 6.48 0 0 0 0-9.12 7.24 7.24 0 0 0-5.08-1.7h-.88v12.5h-.01ZM103.57 21.48v-20h10.69l.8 3.63h-7.53v4h5.9v3.7h-5.9v4.9h8.44l-1.35 3.82-11.05-.05ZM117.58 21.74V.89l12.09 12.07V1.47l4-.27v20.86l-12.1-12v11.43l-3.99.25ZM136.78 21.74V1.47h5.57a6.93 6.93 0 0 1 4.9 11.61 6.668 6.668 0 0 1-4.9 1.82h-1.55v6.58l-4.02.26Zm4-16.73v6.35h1a3.32 3.32 0 0 0 2.42-.83 3.063 3.063 0 0 0 .85-2.33 3.13 3.13 0 0 0-.86-2.35 3.312 3.312 0 0 0-2.41-.84h-1ZM146.49 21.23 156.82.89l10.41 20.36-4.24.67-2.4-5.14H153l-2.36 5.14-4.15-.69Zm8.06-7.83h4.48l-2.24-5.27-2.24 5.27ZM167.64 1.47l3.94-.27v16.52h7.32l-.93 3.76h-10.33V1.47ZM179.17 21.23 189.49.89l10.41 20.36-4.23.67-2.41-5.14h-7.59l-2.35 5.14-4.15-.69Zm8.06-7.83h4.47l-2.24-5.27-2.23 5.27ZM212.82 21.04a7.27 7.27 0 0 1-1.87.66 10.1 10.1 0 0 1-5-.2 9.218 9.218 0 0 1-2.54-1.24 10.35 10.35 0 0 1-4.65-8.79c-.003-1.37.258-2.729.77-4a10.498 10.498 0 0 1 5.56-5.63 9.8 9.8 0 0 1 3.85-.77c.631 0 1.26.056 1.88.17.589.11 1.165.277 1.72.5l.61 4.29a7.825 7.825 0 0 0-2-1 6.804 6.804 0 0 0-2.11-.33 5.738 5.738 0 0 0-4.39 2 7.469 7.469 0 0 0 0 9.75 5.8 5.8 0 0 0 4.45 2 5.738 5.738 0 0 0 2.06-.39 9.431 9.431 0 0 0 2.14-1.26l-.48 4.24ZM215.66 21.48v-20h10.69l.8 3.63h-7.52v4h5.89v3.7h-5.89v4.9h8.44l-1.36 3.82-11.05-.05ZM231.9 21.21l.75-.93.77.84-.77.94-.75-.85ZM235.13 17.93v-6.8l.86-.1v4.72c.368-.522.85-.953 1.41-1.26a3.638 3.638 0 0 1 1.76-.43 3.935 3.935 0 0 1 2.89 1.15 3.813 3.813 0 0 1 1.16 2.85 3.85 3.85 0 0 1-1.16 2.86 3.935 3.935 0 0 1-2.89 1.15 3.867 3.867 0 0 1-2.9-1.15 4.006 4.006 0 0 1-1.13-2.99Zm.86.12a3.178 3.178 0 0 0 2.555 3.125 3.18 3.18 0 1 0-1.625-5.365 3.056 3.056 0 0 0-.93 2.24ZM251.14 20.97c-.462.346-.97.626-1.51.83a4.65 4.65 0 0 1-1.54.26 3.932 3.932 0 0 1-2.9-1.15 3.884 3.884 0 0 1-1.16-2.86 3.825 3.825 0 0 1 .285-1.553 3.989 3.989 0 0 1 3.775-2.447 3.719 3.719 0 0 1 1.92.48c.553.315.999.789 1.28 1.36l-6 3.55a3.073 3.073 0 0 0 2.81 1.69c.5 0 .994-.106 1.45-.31a7.363 7.363 0 0 0 1.6-1v1.11l-.01.04Zm-6.17-2.26 5.06-3a1.938 1.938 0 0 0-.81-.6 2.851 2.851 0 0 0-1.13-.21 3.121 3.121 0 0 0-3.19 3v.44c0 .15.06.26.07.37Z"/></g><defs><clipPath id="clip0_619_8481"><path fill="#fff" transform="translate(.6)" d="M0 0h250.69v23.2H0z"/></clipPath></defs></svg>