<svg width="220" height="57" viewBox="0 0 220 57" fill="none" xmlns="http://www.w3.org/2000/svg">
<path d="M71.413 41.2485H64.3496C64.0912 41.2485 63.5744 41.2485 63.5744 40.8178C63.5744 40.6455 63.6605 40.3871 64.0051 40.3871C64.0912 40.3871 64.1774 40.3871 64.3496 40.3871C64.6942 40.3871 64.9526 40.301 65.211 40.301C65.7279 40.2148 66.2447 40.1287 66.2447 38.4059V25.3128C66.2447 20.0583 66.2447 19.1107 66.1586 18.0771C66.0724 16.8711 65.814 16.5265 64.8665 16.3543C64.608 16.2681 64.1774 16.2681 63.8328 16.2681C63.4882 16.2681 63.4021 16.0097 63.4021 15.8374C63.4021 15.4067 63.8328 15.4067 64.0912 15.4067H72.1022C76.4091 15.4067 77.9596 16.8711 78.4765 17.3879C79.3379 18.2493 80.1993 19.7998 80.1993 21.5226C80.1993 26.3464 76.6675 29.7059 71.6715 29.7059C71.5853 29.7059 71.2408 29.7059 70.9824 29.7059C70.8101 29.7059 70.4655 29.6197 70.4655 29.2752C70.4655 28.7583 70.8962 28.7583 71.5853 28.7583C74.7725 28.7583 77.1844 26.4326 77.1844 23.4177C77.1844 22.6424 77.1844 20.2305 75.3755 18.3355C73.9111 16.8711 72.3606 16.6988 71.2408 16.6988C71.1546 16.6988 71.0685 16.6988 71.0685 16.6988H70.8962C70.2932 16.6988 69.7764 16.785 69.518 16.8711C69.3457 16.9572 69.3457 17.1295 69.3457 17.3018V38.2336C69.3457 39.9564 69.6041 39.9564 70.4655 40.1287C70.8101 40.2148 70.9824 40.2148 71.2408 40.2148L71.4992 40.301C71.8437 40.3871 71.9299 40.5594 71.9299 40.7317C72.016 41.1624 71.6715 41.2485 71.413 41.2485Z" fill="#D4D4D4"/>
<path d="M96.1349 39.0946H91.3111C91.1389 39.0946 90.7943 39.0946 90.7943 38.7501C90.7943 38.5778 90.7943 38.4916 90.8804 38.4916C90.9666 38.3194 91.225 38.3194 91.4834 38.3194C91.5696 38.3194 91.6557 38.3194 91.7418 38.3194C91.7418 38.3194 91.828 38.2332 91.7418 38.0609L89.5884 32.8064H84.0754C84.0754 32.8064 84.0754 32.8064 83.9893 32.8926C83.9893 32.8926 82.8695 35.9936 82.6111 36.5966C82.3527 37.1996 82.2665 37.7164 82.2665 38.0609C82.2665 38.4055 82.6972 38.4916 82.8695 38.4916H83.1279C83.3863 38.4916 83.5586 38.6639 83.5586 38.8362C83.5586 38.9223 83.4725 39.1808 83.0418 39.1808H78.7348C78.5625 39.1808 78.1318 39.1808 78.1318 38.8362C78.1318 38.6639 78.3041 38.4916 78.4764 38.4916C78.5625 38.4916 78.6487 38.4916 78.7348 38.4916C78.8209 38.4916 78.821 38.4916 78.9071 38.4916C79.8546 38.4055 80.2853 37.7164 80.8022 36.5104L86.4012 22.039C86.6596 21.3499 86.8319 21.0054 87.1765 21.0054C87.521 21.0054 87.6072 21.2638 87.7794 21.6945C87.7794 21.7806 87.8656 21.8668 87.8656 21.9529C88.0378 22.4697 89.0715 24.8816 90.2775 27.8104C91.4834 30.8252 92.8616 34.1847 93.6369 35.9936C94.4983 38.0609 95.1013 38.3194 95.532 38.4055C95.8765 38.4916 96.1349 38.4916 96.3072 38.4916C96.5656 38.4916 96.8241 38.6639 96.8241 38.9223C96.8241 38.9223 96.6518 39.0946 96.1349 39.0946ZM84.5061 31.2559H89.0715L86.7458 25.0539C86.7458 25.0539 86.7458 25.0539 86.7458 24.9678C86.7458 24.9678 86.7458 24.9678 86.7458 25.0539C86.6596 25.3123 84.8507 30.4807 84.5061 31.2559Z" fill="#D4D4D4"/>
<path d="M107.764 39.0947H98.633C98.1161 39.0947 98.1161 38.8363 98.1161 38.664C98.1161 38.4917 98.2884 38.3194 98.5468 38.3194C98.8052 38.3194 98.9775 38.2333 99.2359 38.2333C99.5805 38.1472 99.5805 37.8887 99.6666 37.1996V37.1135C99.8389 36.166 99.8389 34.357 99.8389 32.1174V28.0689C99.8389 24.451 99.8389 23.8481 99.7528 23.1589C99.6666 22.3837 99.5805 22.1253 98.9775 22.0391C98.2023 21.953 98.03 21.953 97.9438 21.6084C97.9438 21.5223 97.9438 21.4362 98.03 21.35C98.1161 21.2639 98.3745 21.1777 98.5468 21.1777H103.543C103.801 21.1777 103.974 21.2639 104.06 21.35C104.146 21.4362 104.146 21.5223 104.146 21.6084C104.146 21.953 103.887 21.953 103.112 22.0391C102.595 22.1253 102.423 22.2975 102.423 23.1589C102.423 23.8481 102.423 24.5372 102.423 28.0689V32.2036C102.423 35.0462 102.423 36.8551 102.854 37.2858C103.198 37.6303 104.146 37.8026 105.869 37.8026C107.161 37.8026 108.108 37.7165 108.625 37.1996C108.884 36.9412 109.056 36.4244 109.142 35.9937C109.228 35.7353 109.4 35.563 109.573 35.563C109.745 35.563 109.917 35.6491 109.917 36.0798C109.917 36.3382 109.745 37.7165 109.573 38.4056C109.228 39.0086 109.056 39.0947 107.764 39.0947Z" fill="#D4D4D4"/>
<path d="M116.205 39.0086H111.726C111.295 39.0086 111.123 38.8363 111.123 38.5779C111.123 38.4056 111.209 38.2333 111.554 38.2333C111.726 38.2333 111.898 38.2333 112.243 38.1472C112.846 38.0611 112.932 37.5442 113.018 36.6828V36.4244L114.827 21.35C114.827 21.0055 115.085 20.7471 115.344 20.7471C115.516 20.7471 115.861 20.8332 116.033 21.1778L123.527 35.2185L130.677 21.2639C130.763 21.0916 130.935 20.7471 131.28 20.7471C131.452 20.7471 131.796 20.8332 131.883 21.5223L133.778 37.3719C133.864 37.8888 133.864 37.9749 134.467 38.0611C134.639 38.0611 134.725 38.0611 134.811 38.1472C135.07 38.1472 135.328 38.2333 135.414 38.3195C135.414 38.4056 135.5 38.4056 135.5 38.5779C135.5 38.9225 135.07 38.9224 134.811 38.9224H130.16C129.815 38.9224 129.729 38.7502 129.729 38.5779C129.729 38.4056 129.815 38.1472 130.074 38.1472C130.935 38.0611 131.107 37.9749 131.021 37.4581L129.988 26.3461L124.13 37.6304C123.613 38.664 123.441 38.9224 123.096 38.9224C122.752 38.9224 122.58 38.5779 122.063 37.8026C121.46 36.769 119.737 33.7541 119.134 32.462C118.876 32.0313 118.531 31.2561 118.1 30.4808C117.325 29.0164 116.55 27.4659 116.119 26.6045L115.172 36.5106C115.172 36.8551 115.172 37.2858 115.172 37.6304C115.172 37.8888 115.344 38.0611 115.602 38.0611C115.947 38.1472 116.205 38.1472 116.378 38.1472C116.464 38.1472 116.464 38.1472 116.55 38.1472C116.808 38.1472 116.894 38.3195 116.894 38.4918C116.894 39.0086 116.464 39.0086 116.205 39.0086Z" fill="#D4D4D4"/>
<path d="M141.272 39.3532C140.583 39.3532 138.946 39.2671 137.74 38.7503C137.31 38.578 137.31 38.3196 137.31 37.7166C137.31 36.4245 137.396 35.477 137.396 35.3047C137.396 35.1324 137.482 34.7017 137.826 34.7017C137.999 34.7017 138.257 34.7879 138.257 35.1324C138.257 35.3047 138.257 35.6492 138.343 35.9077C138.774 37.8889 141.186 38.0611 141.961 38.0611C144.028 38.0611 145.321 36.9413 145.321 35.2185C145.321 33.668 144.545 32.9789 142.392 31.3423L141.272 30.567C138.774 28.672 137.74 27.2076 137.74 25.4848C137.74 22.7284 139.894 20.9194 143.253 20.9194C144.287 20.9194 145.234 21.0917 145.751 21.1779C146.182 21.264 146.354 21.264 146.526 21.264C146.613 21.264 146.957 21.264 146.957 21.6085C146.957 21.6085 146.957 21.6947 146.957 21.867C146.957 22.2115 146.871 22.9006 146.871 24.1066C146.871 24.4511 146.871 24.7957 146.526 24.7957C146.182 24.7957 146.182 24.5373 146.096 24.365C146.01 23.8482 145.923 23.5036 145.751 23.2452C145.751 23.2452 145.148 22.2115 142.822 22.2115C141.444 22.2115 139.808 22.8145 139.808 24.5373C139.808 25.9155 140.411 26.6908 142.822 28.2413L143.512 28.672C146.354 30.567 147.474 32.2898 147.474 34.3572C147.474 36.0799 146.699 37.4582 145.148 38.4918C144.287 39.0948 142.995 39.3532 141.272 39.3532Z" fill="#D4D4D4"/>
<path d="M163.582 41.2479H155.657C155.226 41.2479 155.054 40.9895 155.054 40.8172C155.054 40.645 155.14 40.3865 155.485 40.3865C155.657 40.3865 155.829 40.3004 156.002 40.3004C156.174 40.3004 156.346 40.3004 156.518 40.2143C157.035 40.1281 157.207 39.5252 157.38 38.4915C157.552 37.1133 157.552 34.3568 157.552 31.1696V25.226C157.552 19.9715 157.552 19.024 157.466 17.9042C157.38 16.6983 157.121 16.3537 156.174 16.1814C156.002 16.1814 155.743 16.0953 155.054 16.0953C154.796 16.0953 154.623 15.923 154.623 15.6646C154.623 15.2339 155.14 15.2339 155.312 15.2339H162.893C169.525 15.2339 169.87 19.9715 169.87 20.4884C169.956 23.9339 168.147 25.7429 167.027 26.432C169.439 26.9488 172.454 29.8776 172.454 33.6677C172.368 37.3717 169.612 41.2479 163.582 41.2479ZM160.567 27.6379V29.6191C160.567 32.1172 160.567 36.4241 160.567 36.941V37.1133C160.653 38.6638 160.653 39.0083 161.601 39.439C162.548 39.8697 164.185 39.9558 164.529 39.9558C166.597 39.9558 169.095 38.7499 169.095 35.3905C169.095 34.0984 168.75 30.7389 165.908 28.7577C164.788 27.9825 164.012 27.8964 163.237 27.8102C162.893 27.7241 161.945 27.6379 160.567 27.6379ZM160.653 26.2597C160.911 26.2597 161.428 26.3458 162.634 26.3458C164.529 26.3458 164.874 26.2597 165.563 25.5706C166.338 24.7092 166.769 23.5033 166.769 22.2973C166.769 19.7131 165.649 16.6983 162.376 16.6983C161.945 16.6983 161.256 16.6983 160.825 16.8705C160.567 16.9567 160.567 16.9567 160.567 17.0428V26.0874C160.567 26.1736 160.567 26.1736 160.653 26.2597Z" fill="#D4D4D4"/>
<path d="M183.652 39.0086H183.48H175.038C174.608 39.0086 174.435 38.8363 174.435 38.5779C174.435 38.4056 174.608 38.2333 174.78 38.2333C174.952 38.2333 175.038 38.1472 175.211 38.1472C175.297 38.1472 175.383 38.1472 175.555 38.061H175.641C175.986 37.9749 176.158 37.8887 176.158 35.9075V25.5708C176.158 22.1253 175.986 22.1253 175.297 22.0391C175.125 22.0391 174.866 22.0391 174.694 21.953C174.435 21.953 174.349 21.7807 174.349 21.6084C174.349 21.35 174.522 21.2639 174.78 21.2639C175.555 21.2639 182.36 21.35 183.136 21.35C183.566 21.35 183.911 21.2639 184.083 21.2639H184.169C184.255 21.1777 184.428 21.1777 184.514 21.1777C184.686 21.1777 184.858 21.2639 184.858 21.6084C184.858 21.7807 184.6 23.9342 184.514 24.1926C184.428 24.5372 184.342 24.6233 184.083 24.6233C183.997 24.6233 183.739 24.6233 183.739 24.1065C183.739 23.9342 183.739 23.5896 183.652 23.3312C183.566 23.0728 183.394 22.8144 182.102 22.7282C181.757 22.7282 179.087 22.6421 178.915 22.6421C178.742 22.6421 178.742 22.7282 178.742 22.8144V28.9303C178.742 28.9303 178.742 28.9303 178.742 29.0164C179.432 29.0164 182.102 29.0164 182.619 28.9303H182.705C183.222 28.8441 183.48 28.8441 183.739 28.6718L183.825 28.5857C183.997 28.4134 184.083 28.3273 184.255 28.3273C184.428 28.3273 184.6 28.4134 184.6 28.6718C184.6 28.758 184.6 28.8441 184.6 28.9303C184.514 29.1025 184.514 29.4471 184.428 29.9639C184.342 30.3946 184.342 31.5144 184.342 31.6006C184.342 31.9451 184.083 32.0313 183.997 32.0313C183.739 32.0313 183.652 31.859 183.652 31.6006C183.652 31.4283 183.652 31.1699 183.566 30.9115C183.48 30.7392 183.48 30.4808 182.533 30.3085C181.93 30.2224 179.518 30.2224 179.001 30.2224V32.1174C179.001 32.3758 179.001 32.7204 179.001 33.1511C179.001 34.2709 179.001 35.7353 179.001 35.9937C179.087 37.3719 179.259 37.6303 181.671 37.6303C182.274 37.6303 183.394 37.6303 183.997 37.3719C184.514 37.1135 184.772 36.7689 184.944 35.9075C184.944 35.7353 185.031 35.3907 185.375 35.4768C185.461 35.4768 185.72 35.563 185.72 35.9937C185.72 36.2521 185.547 37.7165 185.375 38.2333C184.772 39.0086 184.428 39.0086 183.652 39.0086Z" fill="#D4D4D4"/>
<path d="M196.832 39.0088H191.577C191.405 39.0088 190.974 39.0088 190.974 38.6642C190.974 38.4919 191.06 38.3196 191.319 38.3196C191.663 38.3196 192.094 38.2335 192.266 38.1474C192.611 38.0612 192.869 37.9751 192.869 36.2523V22.8146H189.682C188.39 22.8146 187.787 22.9869 187.443 23.5037C187.27 23.8483 187.184 23.9344 187.098 24.1067V24.1928C187.012 24.3651 186.926 24.5374 186.667 24.5374C186.495 24.5374 186.323 24.3651 186.323 24.1928C186.323 24.0205 186.495 23.3314 186.84 21.8671L186.926 21.6086C187.012 21.4364 187.012 21.0918 187.356 21.0918C187.443 21.0918 187.529 21.0918 187.615 21.1779C187.787 21.2641 188.046 21.3502 188.39 21.3502C189.079 21.4364 189.941 21.4364 190.199 21.4364H198.21C198.468 21.4364 199.33 21.4364 200.019 21.3502C200.363 21.2641 200.622 21.1779 200.794 21.1779C200.88 21.1779 200.966 21.0918 201.053 21.0918C201.397 21.0918 201.483 21.5225 201.483 21.6948C201.483 21.6948 201.483 21.8671 201.569 22.0393C201.828 23.2453 202 24.0205 202 24.1928C202 24.4512 201.828 24.5374 201.656 24.5374C201.483 24.5374 201.311 24.4512 201.225 24.1928C201.139 24.0205 201.139 23.9344 200.88 23.5898C200.536 23.1591 199.933 22.9007 198.641 22.9007H195.367V36.3384C195.367 38.1474 195.454 38.1474 196.229 38.2335H196.315C196.832 38.3196 197.176 38.3196 197.176 38.6642C197.176 38.7503 197.176 38.8365 197.09 38.9226C197.176 38.9226 197.004 39.0088 196.832 39.0088Z" fill="#D4D4D4"/>
<path d="M60.9038 33.151C60.8177 33.4955 60.6454 33.4955 60.5593 33.0648C60.2147 31.2559 59.0949 29.2747 56.4246 28.3272C56.3385 28.3272 56.2523 28.4133 56.2523 28.4994C56.5107 28.9301 56.8553 29.7054 56.8553 30.7391C56.7691 33.151 55.5632 34.6153 54.9602 35.2183C54.7879 35.3906 54.6157 35.3044 54.7018 35.046C54.7879 32.1173 52.2038 30.8252 51.7731 29.1886C51.6869 29.0163 51.6008 29.0163 51.5147 29.2747C50.0503 39.8698 41.9532 53.3075 25.2422 46.5025C25.0699 46.4164 24.9838 46.3303 25.3283 46.3303C43.5037 47.1917 42.47 29.7915 32.1333 22.2974C32.0472 22.2113 31.8749 22.2113 31.8749 22.3836C31.7888 24.9677 29.2046 25.9153 31.7888 31.2559C31.8749 31.342 31.7888 31.4282 31.7026 31.4282C26.1897 30.3945 24.6392 26.346 25.156 23.1588C25.156 23.0727 25.0699 22.9865 24.9838 23.0727C21.6243 25.8291 21.1075 29.3608 23.3471 32.9787C23.4333 33.0648 23.261 33.2371 23.1748 33.151C16.456 28.4133 18.5233 20.4885 21.8828 18.5934C24.8115 16.8706 26.7065 18.1627 26.965 18.335C27.1372 18.4212 27.3095 18.2489 27.1372 18.0766C26.7927 17.0429 25.9313 15.234 26.6204 13.4251C29.0323 6.62007 39.6274 7.05077 43.073 11.53C43.1591 11.6162 43.073 11.7884 42.9007 11.7023C36.7848 9.97951 31.8749 14.5449 31.0997 15.234C30.7551 15.4924 30.8412 15.6647 31.2719 15.4924C38.3353 13.7696 39.4552 18.8518 43.1591 18.8518C43.4176 18.8518 43.5037 19.0241 43.2453 19.1964C38.9383 22.5558 34.4591 21.436 33.2531 20.8331C32.9086 20.6608 32.8224 20.9192 33.167 21.1776C47.4661 31.5143 40.7472 44.7798 36.9571 45.6412C45.1403 43.5738 48.6721 34.8737 50.1364 29.2747C50.2226 29.0163 50.1364 29.0163 49.9641 29.1886C49.3612 29.7915 48.5859 30.8252 48.4136 30.9975C46.4324 32.8925 44.3651 32.8064 43.4176 32.6341C43.1591 32.548 43.073 32.4618 43.3314 32.2896C45.9156 30.8252 45.3126 26.6044 48.2414 26.0014C48.4136 26.0014 48.4136 25.8291 48.3275 25.743C47.8107 25.14 44.7958 24.1925 42.1255 26.4321C41.9532 26.6044 41.7809 26.5182 41.8671 26.2598C41.9532 25.3984 42.2978 23.4172 44.7958 22.2113C47.2938 21.0053 49.6196 21.6083 51.084 23.2449C52.0315 24.3648 52.0315 25.3123 52.0315 25.5707C52.1176 25.8291 52.2899 25.8291 52.4622 25.743C52.8929 25.4846 53.582 24.9677 54.6157 24.7093C58.4058 23.9341 62.1959 29.1886 60.9038 33.151Z" fill="#D4D4D4"/>
</svg>
