<svg width="318" height="82" viewBox="0 0 318 82" fill="none" xmlns="http://www.w3.org/2000/svg">
<path d="M130.521 63.27C140.221 63.43 149.091 58.01 153.031 49.3C155.001 57.19 161.581 63.27 172.091 63.27C183.761 63.6 193.951 55.38 196.411 44.04C197.231 40.42 197.231 36.65 196.251 33.03H203.641L201.501 43.05C198.381 57.35 201.341 62.44 215.961 62.44H218.261L221.221 49.13C214.811 49.13 214.481 48.47 215.801 43.05C215.801 42.89 216.791 38.61 217.941 33.03H224.841L227.471 20.38H220.731C222.701 11.34 224.511 2.95996 224.511 2.95996L208.731 10.68L206.591 20.38H198.211L195.911 31.23C193.281 24.49 186.871 19.56 177.511 19.56C168.151 19.56 159.111 24.98 155.001 33.53C153.031 25.64 146.291 19.56 135.771 19.56C124.101 19.56 114.081 27.45 111.451 38.79C108.661 51.11 115.561 63.27 130.511 63.27H130.521ZM166.841 40.42C167.661 35.98 171.611 32.7 176.041 32.53C181.301 32.53 183.931 37.3 182.941 42.39C182.121 46.83 178.341 50.11 173.741 50.28C168.651 50.12 165.851 45.51 166.841 40.42ZM125.101 40.42C125.921 35.98 129.871 32.7 134.301 32.53C139.561 32.53 142.191 37.3 141.201 42.39C140.381 46.83 136.601 50.11 132.001 50.28C126.911 50.12 124.111 45.51 125.101 40.42Z" fill="#D5D5D4"/>
<path d="M229.941 32.8699H248.181L225.831 49.9599L223.041 62.4499H261.001L263.631 49.9599H244.571L267.251 32.8699L270.041 20.3799H232.411L229.951 32.8699H229.941Z" fill="#D5D5D4"/>
<path d="M90.5916 49.79C100.122 47.98 107.842 40.59 109.822 30.89C113.432 15.45 100.942 0 73.6616 0C53.6216 0 39.3216 8.71 36.6916 21.86C34.2316 31.56 39.6516 41.74 49.1816 44.87L57.0716 32.87C52.9616 31.23 49.8416 28.6 50.6616 24C51.9716 17.92 58.2216 13.15 71.6916 13.15C90.7516 13.15 97.3316 21.2 95.5216 28.27C94.2116 34.68 88.9516 37.97 82.3716 37.97H76.6216L81.0616 17.26H66.6016L58.7116 53.91C57.4016 60.48 55.0916 63.93 51.6416 63.93C49.6716 64.09 47.8616 62.62 47.7016 60.48C47.7016 59.99 47.7016 59.66 47.8616 59.17C48.3516 57.69 49.3416 56.38 50.6516 55.55L38.6516 47.5C35.8616 50.13 33.8816 53.58 33.0616 57.36C30.6016 68.86 38.1516 77.9 50.8116 77.9C63.4716 77.9 70.0416 69.35 72.6716 56.37L75.7916 41.74C74.6416 69.35 91.5716 82 105.532 82H256.882L259.842 68.36H107.522C100.952 68.03 91.7416 60.47 90.5916 49.79Z" fill="#D5D5D4"/>
<path d="M274.472 14.1301H276.772V20.3701H278.742V14.1301H281.042V12.3201H274.472V14.1301Z" fill="#D5D5D4"/>
<path d="M288.611 12.3201L286.971 17.2501L285.331 12.3201H282.701V20.3701H284.671V15.6001L286.311 20.3701H287.791L289.431 15.6001V20.3701H291.401V12.3201H288.611Z" fill="#D5D5D4"/>
</svg>
