<?xml version="1.0" encoding="utf-8"?>
<!-- Generator: Adobe Illustrator 24.0.1, SVG Export Plug-In . SVG Version: 6.00 Build 0)  -->
<svg version="1.1" id="Слой_1" xmlns="http://www.w3.org/2000/svg" xmlns:xlink="http://www.w3.org/1999/xlink" x="0px" y="0px"
	 viewBox="0 0 288.9 223.7" style="enable-background:new 0 0 288.9 223.7;" xml:space="preserve">
<style type="text/css">
	.st0{fill:#FFFFFF;}
</style>
<path class="st0" d="M34,153.7c6.4,0,10.5-3.5,10.5-8.8c0-5.5-4.2-8.3-10-11.9c-8.9-5.5-19.1-11.4-19.1-25.2c0-13.6,9.6-22,24.4-22
	h17.6l-4,13.5H40.1C34,99.4,30,102,30,107c0,4.8,3.7,7.1,11.6,12.1c8.6,5.4,17.6,11.5,17.6,25.2c0,15-10.6,23.4-23.8,23.4
	c-14,0-24.1-9.9-25-26.4C18,149.2,25.7,153.7,34,153.7 M89.7,85.9c10.3,0,18.1-0.8,24.9-4.1c-0.5,7.8-6.5,17.6-21.3,17.6h-3.1v67.1
	H75.9V99.4h-18l4-13.5H89.7z M108.4,133.8L124,85.9l11.6-0.7l15.9,49.6c8.2,1.8,11.7,8.1,12.6,15.4c-1.9-1.2-5.1-2-8.3-2.2l5.9,18.4
	l-15.3,0.6l-5.7-19.7h-22.1l-5.6,19.1H97.8l7.1-21.9c-5.7-3.7-7.9-9.8-8.7-15.2C99.6,131.5,104.1,133.2,108.4,133.8 M122.2,134.3
	h14.4l-3.9-13.5l-3.3-13.5l-3.4,13.2L122.2,134.3z M183.3,166.5H169V85.9h22.3c15.3,0,26.2,8.2,26.2,23.6c0,11.3-5.6,17.4-12.5,21.4
	c8.1,17.8,19.7,31.2,27.5,34.8c-2.1,1-6,2-9.1,2c-6.9,0-12-2.1-16-6c-6.4-6.3-10.4-14.2-15.5-25.9l-5.3-11.9
	c8.8-1.2,15.9-5.5,15.9-13.4c0-7.8-5.3-11.2-13.5-11.2h-5.6V166.5z"/>
<polygon class="st0" points="288.9,53.5 281.2,54.7 219.9,64.2 197.7,8 194.6,0.1 192.6,8.4 178,67.4 143.3,75.5 120.4,80.8 
	144,80.8 187.8,80.8 190,80.8 190.5,78.7 197.6,45.9 209.3,77.7 210.1,79.8 212.3,79.5 252.3,72.8 224.1,101.6 222.8,103 
	223.5,104.6 241.3,144.7 236.7,145 230.4,145.3 234.9,149.6 265.4,179.1 275.2,188.5 269.8,176 239.6,106.3 283.6,59.3 "/>
<path class="st0" d="M47.8,185.6c-2-1.6-4.1-2.7-6.4-3.5c-1.1-0.4-2.3-0.7-3.4-0.9c-1.2-0.2-2.4-0.3-3.6-0.3
	c-4.8,0-8.7,1.4-11.7,4.2c-3,2.8-4.5,6.4-4.5,10.9c0,4.3,1.5,7.9,4.4,10.7c2.9,2.8,6.6,4.2,11,4.2c1.3,0,2.6-0.1,3.7-0.3
	c1.2-0.2,2.4-0.5,3.6-1c2.3-0.8,4.6-2.1,6.7-3.8v7.4c-1.9,1.3-4,2.2-6.2,2.8c-1.1,0.3-2.3,0.5-3.5,0.7c-1.2,0.2-2.5,0.2-3.8,0.2
	c-3.3,0-6.4-0.5-9.2-1.5c-2.8-1-5.3-2.5-7.5-4.4c-2.2-1.9-3.8-4.2-5-6.8c-1.1-2.6-1.7-5.4-1.7-8.3c0-2.9,0.6-5.7,1.7-8.3
	c1.1-2.6,2.8-4.9,5-6.8c2.2-1.9,4.7-3.4,7.5-4.4c2.8-1,5.9-1.5,9.1-1.5c1.3,0,2.6,0.1,3.8,0.2c1.2,0.2,2.4,0.4,3.6,0.8
	c2.3,0.7,4.6,1.7,6.8,3.1L47.8,185.6z"/>
<path class="st0" d="M86.5,215.9l-5-10.3H64.2l-5.1,10.3l-7.5,0l21.2-41.6L94,215.9L86.5,215.9z M66.9,200.2H79l-4.5-9.1l-0.8-2
	l-0.8-2.5c-0.1,0.5-0.3,0.9-0.4,1.3c-0.1,0.4-0.2,0.7-0.4,1.1c-0.2,0.7-0.5,1.4-0.8,2.1L66.9,200.2z"/>
<path class="st0" d="M96.7,207.9l5.7-2.4c0.5,1.8,1.5,3.1,3,4.1c1.4,1,3.3,1.4,5.5,1.4c2.1,0,3.8-0.5,5-1.6c1.2-1.1,1.9-2.5,1.9-4.3
	c0-2.3-2.1-4.4-6.4-6.3l-1.4-0.6c-4.8-2.1-8-4.1-9.6-5.8c-1.6-1.8-2.4-3.9-2.4-6.4c0-3.2,1.2-5.9,3.6-7.9c2.4-2,5.6-3,9.5-3
	c3.2,0,5.9,0.6,8.1,1.7c2.2,1.1,3.7,2.8,4.5,4.9l-5.6,2.6c-0.9-1.2-1.8-2.2-2.9-2.7c-1.1-0.6-2.3-0.9-3.6-0.9
	c-1.9,0-3.5,0.5-4.6,1.4c-1.1,0.9-1.7,2.1-1.7,3.7c0,2.4,2.5,4.7,7.4,6.7l0.9,0.4c4.3,1.8,7.3,3.6,8.9,5.3c1.6,1.8,2.4,3.9,2.4,6.5
	c0,3.8-1.3,6.8-3.9,9c-2.6,2.2-6.1,3.4-10.6,3.4c-3.7,0-6.8-0.8-9.1-2.4C99,213.1,97.4,210.8,96.7,207.9"/>
<rect x="133.9" y="175.9" class="st0" width="7.1" height="40"/>
<path class="st0" d="M152.3,215.9v-41.6l27.8,24.5l2.3,2.2c0.8,0.7,1.6,1.6,2.4,2.7v-27.7h6.6v41.6L163,192.6
	c-0.4-0.4-0.8-0.7-1.1-1c-0.1-0.1-0.5-0.5-1.1-1.1c-0.7-0.8-1.4-1.5-2-2.4v27.8H152.3z"/>
<path class="st0" d="M247.3,196c0,2.9-0.6,5.6-1.7,8.1c-1.2,2.5-2.8,4.7-5.1,6.7c-2.2,2-4.8,3.5-7.6,4.6c-2.9,1.1-5.8,1.6-8.9,1.6
	c-3.1,0-6.1-0.5-9-1.6c-2.9-1.1-5.4-2.6-7.6-4.5c-2.2-2-3.9-4.2-5-6.8c-1.2-2.6-1.8-5.3-1.8-8.1c0-2.8,0.6-5.5,1.7-8.1
	c1.2-2.6,2.8-4.8,5.1-6.8s4.7-3.5,7.6-4.5c2.8-1,5.8-1.6,9-1.6c3.1,0,6.1,0.5,8.9,1.6c2.8,1,5.3,2.6,7.6,4.6c2.2,2,3.9,4.3,5.1,6.8
	C246.7,190.5,247.3,193.2,247.3,196 M239.8,196c0-2.1-0.4-4-1.2-5.8c-0.8-1.8-1.9-3.4-3.4-4.8c-1.5-1.4-3.2-2.5-5.2-3.3
	c-1.9-0.8-4-1.1-6.2-1.1c-2.2,0-4.2,0.4-6.1,1.1c-1.9,0.7-3.6,1.8-5.2,3.3c-1.5,1.4-2.6,3-3.5,4.8c-0.4,0.9-0.7,1.9-0.9,2.8
	c-0.2,0.9-0.3,1.9-0.3,3c0,2,0.4,4,1.2,5.7c0.4,0.9,0.9,1.8,1.4,2.6c0.6,0.8,1.2,1.5,2,2.3c1.5,1.4,3.2,2.5,5.1,3.2
	c2,0.8,4,1.1,6.2,1.1c2.2,0,4.2-0.4,6.1-1.1c1.9-0.7,3.6-1.8,5.1-3.2c1.5-1.4,2.6-3,3.5-4.9C239.4,199.9,239.8,198,239.8,196"/>
</svg>
