<?xml version="1.0" encoding="UTF-8"?>
<svg id="Layer_1" xmlns="http://www.w3.org/2000/svg" version="1.1" viewBox="0 0 318 82">
  <!-- Generator: Adobe Illustrator 29.8.2, SVG Export Plug-In . SVG Version: 2.1.1 Build 3)  -->
  <path d="M302,11.4c7.5,0,13.6,6.1,13.6,13.6v32c0,7.5-6.1,13.6-13.6,13.6H16c-7.5,0-13.6-6.1-13.6-13.6V25c0-7.5,6.1-13.6,13.6-13.6h286M302,9H16C7.2,9,0,16.2,0,25v32c0,8.8,7.2,16,16,16h286c8.8,0,16-7.2,16-16V25c0-8.8-7.2-16-16-16h0Z" fill="#d5d5d4"/>
  <g>
    <path d="M46.1,25.3c0-.2-.2-.3-.3-.3h-6.8c-.2,0-.3.1-.4.3l-5.9,11.3-5.9-11.3c-.1-.2-.2-.3-.4-.3h-6.8c-.1,0-.3.1-.4.3v.5l10.1,18.2v10.9c0,.2.2.4.4.4h6c.3,0,.5-.2.5-.4v-10.9l10-18.2c.1-.1.1-.3,0-.5" fill="#d5d5d4"/>
    <path d="M62.1,44.3h-7.7l3.8-10.4,3.8,10.4ZM61.8,25.3c-.1-.2-.3-.3-.5-.3h-5.9c-.2,0-.3.1-.4.3l-11.4,29.4c-.1.2-.1.3,0,.4.1.2.2.2.4.2h5.9c.2,0,.4-.1.4-.3l1.6-4.1h12.8l1.5,4.1c.1.2.3.3.5.3h5.9c.1,0,.3,0,.3-.2.1-.1.1-.2.1-.4l-11.4-29.4Z" fill="#d5d5d4"/>
    <path d="M102.9,24.9h-6c-.3,0-.5.2-.5.6v17.3l-16.4-17.6c-.1-.1-.2-.2-.4-.2h-3c-.3,0-.5.2-.5.6v29.4c0,.2.2.4.5.4h6c.2,0,.4-.2.4-.4v-17.3l16.5,17.6c.1.1.2.1.3.1h3.1c.2,0,.4-.2.4-.4v-29.4c0-.3-.2-.6-.4-.6" fill="#d5d5d4"/>
    <path d="M136.6,35.7c-.1-.2-.3-.3-.5-.3h-10.2c-.1,0-.3.1-.4.2l-3.8,5.7c-.1.1-.1.3-.1.4.1.2.3.3.4.3h7.8c-.9,4.1-3.8,6.7-7.8,6.7s-7.9-3.8-7.9-8.7,3.3-8.6,7.9-8.6,3.4.4,4.7,1.4c.2.2.5.1.8-.1l3.5-4.6c.1-.1.1-.2.1-.3s-.1-.2-.2-.3c-2.5-1.8-5.6-2.7-8.9-2.7-8.5,0-15.1,6.7-15.1,15.2s6.6,15.2,15.1,15.2,15.2-6.7,15.2-15.2c0-1.5-.2-2.9-.5-4.3" fill="#d5d5d4"/>
    <path d="M155.5,44.3h-7.8l3.8-10.4,4,10.4ZM155,25.3c-.1-.2-.2-.3-.4-.3h-6c-.2,0-.3.1-.4.3l-11.4,29.4c-.1.2-.1.3,0,.4.1.2.2.2.4.2h5.9c.2,0,.4-.1.4-.3l1.6-4.1h12.8l1.6,4.1c0,.2.2.3.4.3h5.9c.1,0,.3,0,.4-.2,0-.1.1-.2,0-.4l-11.4-29.4Z" fill="#d5d5d4"/>
  </g>
  <g>
    <path d="M188.6,31.5c0,.3-.3.4-.6.3-1.5-.5-4.9-1.3-6.3-1.3-2.1,0-3.9,1.1-3.9,2.7s1.9,2.6,5.4,4,7.8,3,7.8,9-6.3,9-12.2,9-5.6-.7-8-1.6-.3-.3-.3-.5l1.1-5c0-.3.4-.4.6-.3,2.6,1.1,4.4,1.8,6.5,1.8s5.2-.7,5.2-2.9-2.1-3.2-5.9-4.6c-5.1-1.8-7.1-4.7-7.1-8.2s3.3-9,10.5-9,6.6.6,8.2,1.2.3.3.3.5l-1.2,4.9Z" fill="#d5d5d4"/>
    <path d="M202.4,44.7v10.1c0,.2-.2.4-.4.4h-6.1c-.2,0-.4-.2-.4-.4v-29c0-.2.2-.4.4-.4l8.8-.4c6.3,0,12.3,2.3,12.3,9.9s-6.8,9.9-12.4,9.9h-2.1ZM202.4,30.6v8.6h2.9c2.8,0,4.7-1.5,4.7-4.2s-1.6-4.4-4.7-4.4h-2.9Z" fill="#d5d5d4"/>
    <path d="M248.4,40.1c0,8.4-5.3,15.2-14.4,15.2s-14.5-6.8-14.5-15.2,5.7-15.1,14.5-15.1,14.4,6.7,14.4,15.1ZM226.7,40.1c0,5.3,3.1,9.6,7.3,9.6s7.1-4.3,7.1-9.6-3-9.6-7.1-9.6-7.3,4.2-7.3,9.6Z" fill="#d5d5d4"/>
    <path d="M262.2,43.7h-2.8v11.1c0,.2-.2.4-.4.4h-6.1c-.2,0-.4-.2-.4-.4v-29c0-.2.2-.4.4-.4l8.3-.4c6,0,12.6,1.5,12.6,8.8s-2.1,6.5-4.8,7.4c0,0,1,.6,1.8,1.6,1.9,2.1,2.6,6.8,3.4,9.6s.6,1.9.8,2.4-.1.6-.4.6h-6.6c-.2,0-.3-.1-.4-.3-.1-.3-.3-.9-.5-2-.5-3-1.6-9.3-4.8-9.3ZM259.4,30.6v7.7h2.2c3.4,0,5.4-1.1,5.4-3.9s-2.2-3.8-5.4-3.8h-2.2Z" fill="#d5d5d4"/>
    <path d="M284.3,31.4h-7.7c-.2,0-.5-.2-.5-.5v-5.6c0-.2.2-.5.5-.5h22.2c.2,0,.5.2.5.5v5.6c0,.2-.2.5-.5.5h-7.3v23.4c0,.2-.2.5-.5.5h-6.3c-.2,0-.5-.2-.5-.5v-23.4Z" fill="#d5d5d4"/>
  </g>
</svg>