<svg width="41" height="44" viewBox="0 0 41 44" fill="none" xmlns="http://www.w3.org/2000/svg">
<path d="M35.4711 19.0001H21.0166L26.7439 29.2728H35.4711C35.5439 29.2728 35.5015 22.4243 35.4711 19.0001Z" fill="#A0A0A0"/>
<path fill-rule="evenodd" clip-rule="evenodd" d="M38.653 1.63636H2.10756V34.5454H38.653V1.63636ZM0.471191 0V36.1818H40.2894V0H0.471191Z" fill="#595959"/>
<rect x="5.19824" y="33.4548" width="30.3636" height="3.45455" fill="#A0A0A0"/>
<path d="M28.1852 17.1047C27.2495 17.1047 26.3815 16.9582 25.5812 16.6651C24.7808 16.3607 24.0875 15.9324 23.5013 15.38C22.9264 14.8276 22.4755 14.1795 22.1486 13.4355C21.8217 12.6802 21.6583 11.8516 21.6583 10.9498C21.6583 10.048 21.8217 9.22509 22.1486 8.48109C22.4755 7.72582 22.9321 7.072 23.5183 6.51964C24.1044 5.96727 24.7977 5.54455 25.5981 5.25146C26.4097 4.94709 27.2946 4.79491 28.2528 4.79491C29.3688 4.79491 30.3664 4.98091 31.2457 5.35291C32.125 5.72491 32.7144 5.93782 33.2893 6.63673L31.2964 8.88691C30.8906 8.44727 30.451 8.12037 29.9775 7.90618C29.5153 7.68073 28.9968 7.568 28.4219 7.568C27.9146 7.568 27.4524 7.64691 27.0353 7.80473C26.6183 7.96255 26.2632 8.19364 25.9701 8.498C25.677 8.79109 25.4459 9.14618 25.2768 9.56327C25.119 9.96909 25.0401 10.4313 25.0401 10.9498C25.0401 11.4458 25.119 11.9024 25.2768 12.3195C25.4459 12.7365 25.677 13.0973 25.9701 13.4016C26.2632 13.6947 26.6126 13.9258 27.0184 14.0949C27.4355 14.2527 27.8921 14.3316 28.3881 14.3316C28.8841 14.3316 29.3688 14.34 29.8423 14.1822L30.4711 13.9475V10.6962H33.1564V15.5998C32.4801 16.0845 31.6966 16.4565 30.8061 16.7158C29.9155 16.9751 29.0419 17.1047 28.1852 17.1047Z" fill="white"/>
<path d="M20.1075 7.81853V4.72762H16.996L18.7592 7.81853H20.1075Z" fill="white"/>
<path d="M16.996 7.44712L16.996 16.9094H20.1075V10.1822L18.5474 7.44712H16.996Z" fill="white"/>
<path d="M12.4125 8.48059C12.3725 8.04025 12.1943 7.69799 11.8781 7.4538C11.5659 7.20561 11.1195 7.08151 10.5391 7.08151C10.1548 7.08151 9.83451 7.13155 9.57832 7.23163C9.32212 7.33171 9.12997 7.46981 9.00187 7.64595C8.87377 7.81808 8.80772 8.01624 8.80372 8.24041C8.79571 8.42455 8.83174 8.58668 8.9118 8.72679C8.99586 8.86689 9.11596 8.99099 9.27208 9.09907C9.4322 9.20315 9.62435 9.29523 9.84853 9.37529C10.0727 9.45535 10.3249 9.5254 10.6051 9.58545L11.6619 9.82564C12.2704 9.95774 12.8068 10.1339 13.2712 10.354C13.7395 10.5742 14.1318 10.8364 14.4481 11.1407C14.7683 11.4449 15.0105 11.7952 15.1746 12.1915C15.3388 12.5878 15.4228 13.0321 15.4268 13.5245C15.4228 14.3011 15.2267 14.9676 14.8384 15.524C14.4501 16.0805 13.8917 16.5068 13.1631 16.803C12.4385 17.0993 11.5639 17.2474 10.5391 17.2474C9.51026 17.2474 8.61357 17.0933 7.84898 16.785C7.08438 16.4768 6.48992 16.0084 6.0656 15.3799C5.64127 14.7514 5.41109 13.7234 5.41109 13.7234L8.25729 12.9961C8.28131 13.3924 8.38739 13.7227 8.57554 13.9869C8.76368 14.2511 9.02188 14.4512 9.35014 14.5873C9.6824 14.7234 10.0667 14.7915 10.503 14.7915C10.9033 14.7915 11.2436 14.7374 11.5238 14.6294C11.808 14.5213 12.0262 14.3712 12.1783 14.179C12.3304 13.9869 12.4085 13.7667 12.4125 13.5185C12.4085 13.2863 12.3365 13.0882 12.1963 12.924C12.0562 12.7559 11.8401 12.6118 11.5478 12.4917C11.2596 12.3676 10.8913 12.2535 10.443 12.1494L9.15799 11.8492C8.09317 11.605 7.25452 11.2107 6.64204 10.6663C6.02957 10.1179 5.72533 9.37729 5.72933 8.44457C5.72533 7.68398 5.92949 7.01746 6.34181 6.44502C6.75413 5.87258 7.32457 5.42623 8.05313 5.10598C8.7817 4.78573 9.61234 4.62561 10.5451 4.62561C11.4978 4.62561 12.3244 4.78774 13.025 5.11199C13.7295 5.43223 14.276 5.88258 14.6643 6.46303C15.0526 7.04348 15.2587 7.75332 15.2587 7.75332L12.4125 8.48059Z" fill="white"/>
<path d="M5.40186 19.0913H8.71907L12.0166 26.0913H12.1984L15.4717 19.0913H18.6529V21.8185V31.2731H15.9256V23.6772H15.8236L13.1075 29.8185H11.0166L8.21636 23.6772H8.11428V31.2731H5.40186V19.0913Z" fill="white"/>
<path d="M22.5756 31.2731H19.4711L26.3802 18.9756H26.5487L33.6366 31.2731H30.4421L26.562 24.6367H26.375L22.5756 31.2731Z" fill="white"/>
<path d="M20.2893 21.8185L18.6529 19.0913V21.8185H20.2893Z" fill="white"/>
<path d="M7.47333 40.7462L6.35843 43.6928H4.83496L7.47333 38.3632L10.1186 43.6928H8.59516L7.47333 40.7462Z" fill="#A0A0A0"/>
<path d="M14.4621 41.3027L15.3138 38.6985H16.9204L14.7668 43.9996L13.1671 41.2456L11.5744 43.9996L9.42079 38.6985H11.0274L11.8791 41.3027L13.1671 38.4488L14.4621 41.3027Z" fill="#A0A0A0"/>
<path d="M18.8615 40.7462L17.7466 43.6928H16.2231L18.8615 38.3632L21.5068 43.6928H19.9833L18.8615 40.7462Z" fill="#A0A0A0"/>
<path d="M23.2992 41.4882H24.6772L26.1314 43.6928H24.5664L23.2992 41.4882ZM21.9835 38.6985H23.3269V43.6928H21.9835V38.6985ZM22.8421 39.8686V38.6985H23.8878C24.331 38.6985 24.6957 38.7699 24.9819 38.9126C25.2728 39.0553 25.4874 39.2527 25.6259 39.5048C25.769 39.7521 25.8406 40.0399 25.8406 40.3681C25.8406 40.6915 25.769 40.9816 25.6259 41.2385C25.4874 41.4906 25.2728 41.688 24.9819 41.8307C24.6957 41.9686 24.331 42.0376 23.8878 42.0376H22.8421V40.9888H23.777C23.9201 40.9888 24.0401 40.9674 24.1371 40.9246C24.234 40.8817 24.3079 40.8175 24.3587 40.7319C24.4141 40.6463 24.4418 40.544 24.4418 40.4251C24.4418 40.3062 24.4141 40.2063 24.3587 40.1255C24.3079 40.0399 24.234 39.9756 24.1371 39.9328C24.0401 39.89 23.9201 39.8686 23.777 39.8686H22.8421Z" fill="#A0A0A0"/>
<path d="M26.6429 38.6985H28.0348V43.6928H26.6429V38.6985ZM28.4572 43.6928H27.5569V42.4799H28.4018C28.5634 42.4799 28.7203 42.4633 28.8727 42.43C29.0296 42.3919 29.1704 42.3277 29.2951 42.2373C29.4197 42.1422 29.519 42.0114 29.5928 41.8449C29.6713 41.6737 29.7106 41.4573 29.7106 41.1957C29.7106 40.9341 29.6713 40.72 29.5928 40.5536C29.519 40.3823 29.4197 40.2515 29.2951 40.1611C29.1704 40.066 29.0296 40.0018 28.8727 39.9685C28.7203 39.9305 28.5634 39.9114 28.4018 39.9114H27.5569V38.6985H28.4572C29.0065 38.6985 29.4774 38.8008 29.8698 39.0053C30.2669 39.2051 30.5716 39.4905 30.7839 39.8615C31.0009 40.2325 31.1094 40.6772 31.1094 41.1957C31.1094 41.7094 31.0009 42.1541 30.7839 42.5298C30.5716 42.9008 30.2669 43.1886 29.8698 43.3931C29.4774 43.5929 29.0065 43.6928 28.4572 43.6928Z" fill="#A0A0A0"/>
<path d="M32.4668 41.8663C32.5638 42.0423 32.6723 42.1945 32.7923 42.3229C32.9123 42.4466 33.0439 42.5417 33.187 42.6083C33.3301 42.6749 33.4779 42.7082 33.6302 42.7082C33.7779 42.7082 33.9003 42.6749 33.9972 42.6083C34.0942 42.537 34.1426 42.4347 34.1426 42.3015C34.1426 42.2064 34.1149 42.1279 34.0595 42.0661C34.0041 41.9995 33.9072 41.9329 33.7687 41.8663C33.6348 41.7997 33.4455 41.7189 33.2009 41.6237C33.0808 41.5762 32.9469 41.5144 32.7992 41.4382C32.6515 41.3574 32.5084 41.2551 32.3699 41.1315C32.236 41.0078 32.1229 40.8556 32.0306 40.6748C31.9428 40.4941 31.899 40.2801 31.899 40.0327C31.899 39.7188 31.9798 39.4548 32.1414 39.2408C32.3029 39.022 32.5176 38.8555 32.7854 38.7414C33.0531 38.6272 33.3509 38.5701 33.6787 38.5701C34.0203 38.5701 34.3158 38.6272 34.5651 38.7414C34.8144 38.8508 35.0198 38.9911 35.1814 39.1623C35.3429 39.3288 35.4676 39.4976 35.5553 39.6689L34.5443 40.2468C34.475 40.1279 34.3942 40.0303 34.3019 39.9542C34.2142 39.8734 34.1196 39.8116 34.018 39.7687C33.9164 39.7259 33.8126 39.7045 33.7064 39.7045C33.5725 39.7045 33.4663 39.7331 33.3878 39.7901C33.3093 39.8472 33.2701 39.9233 33.2701 40.0185C33.2701 40.1279 33.314 40.2206 33.4017 40.2967C33.494 40.3681 33.6187 40.437 33.7756 40.5036C33.9372 40.5654 34.1219 40.6344 34.3296 40.7105C34.5097 40.7771 34.6735 40.858 34.8213 40.9531C34.9736 41.0435 35.1052 41.1529 35.216 41.2813C35.3268 41.405 35.4122 41.5476 35.4722 41.7094C35.5322 41.8711 35.5622 42.0518 35.5622 42.2516C35.5622 42.518 35.5091 42.7534 35.403 42.9579C35.3014 43.1625 35.1606 43.3337 34.9805 43.4716C34.8051 43.6048 34.6043 43.7047 34.3781 43.7713C34.1519 43.8426 33.921 43.8783 33.6856 43.8783C33.3532 43.8783 33.0439 43.8188 32.7577 43.6999C32.4761 43.5858 32.2314 43.4288 32.0236 43.229C31.8159 43.0245 31.6589 42.7986 31.5527 42.5513L32.4668 41.8663Z" fill="#A0A0A0"/>
<path d="M11.3398 36.364L12.2388 34.3277H12.806L13.7078 36.364H13.1086L12.4046 34.6098H12.6315L11.9275 36.364H11.3398ZM11.8315 35.9684L11.9798 35.5437H12.9748L13.1231 35.9684H11.8315Z" fill="white"/>
<path d="M14.0457 36.364V34.3277H14.5199L15.3635 35.7124H15.1133L15.9337 34.3277H16.4079L16.4137 36.364H15.8842L15.8784 35.1335H15.9686L15.3548 36.1633H15.0988L14.4675 35.1335H14.578V36.364H14.0457Z" fill="white"/>
<path d="M17.5253 35.116H18.4707V35.5466H17.5253V35.116ZM17.566 35.9189H18.6307V36.364H16.9958V34.3277H18.5929V34.7727H17.566V35.9189Z" fill="white"/>
<path d="M19.1249 36.364V34.3277H20.0558C20.242 34.3277 20.402 34.3577 20.5358 34.4178C20.6716 34.478 20.7763 34.5652 20.85 34.6797C20.9237 34.7921 20.9605 34.926 20.9605 35.0811C20.9605 35.2343 20.9237 35.3672 20.85 35.4797C20.7763 35.5902 20.6716 35.6755 20.5358 35.7357C20.402 35.7938 20.242 35.8229 20.0558 35.8229H19.4449L19.7009 35.5815V36.364H19.1249ZM20.3845 36.364L19.8783 35.6222H20.4922L21.0013 36.364H20.3845ZM19.7009 35.6426L19.4449 35.3778H20.0209C20.1411 35.3778 20.2303 35.3517 20.2885 35.2993C20.3486 35.2469 20.3787 35.1742 20.3787 35.0811C20.3787 34.9861 20.3486 34.9124 20.2885 34.86C20.2303 34.8077 20.1411 34.7815 20.0209 34.7815H19.4449L19.7009 34.5167V35.6426Z" fill="white"/>
<path d="M21.4528 36.364V34.3277H22.0288V36.364H21.4528Z" fill="white"/>
<path d="M23.6285 36.4047C23.4675 36.4047 23.3182 36.3795 23.1805 36.3291C23.0447 36.2767 22.9264 36.203 22.8255 36.108C22.7266 36.013 22.6491 35.9015 22.5928 35.7735C22.5366 35.6435 22.5085 35.501 22.5085 35.3458C22.5085 35.1907 22.5366 35.0491 22.5928 34.9211C22.6491 34.7912 22.7266 34.6787 22.8255 34.5837C22.9264 34.4886 23.0447 34.4159 23.1805 34.3655C23.3182 34.3131 23.4675 34.2869 23.6285 34.2869C23.8166 34.2869 23.9843 34.3199 24.1317 34.3858C24.2811 34.4518 24.4052 34.5468 24.5041 34.6709L24.1375 35.0026C24.0716 34.925 23.9989 34.8658 23.9194 34.8251C23.8418 34.7844 23.7545 34.764 23.6575 34.764C23.5742 34.764 23.4975 34.7776 23.4277 34.8047C23.3579 34.8319 23.2978 34.8717 23.2474 34.924C23.1989 34.9744 23.1601 35.0355 23.131 35.1073C23.1039 35.179 23.0903 35.2586 23.0903 35.3458C23.0903 35.4331 23.1039 35.5126 23.131 35.5844C23.1601 35.6561 23.1989 35.7182 23.2474 35.7706C23.2978 35.821 23.3579 35.8598 23.4277 35.8869C23.4975 35.9141 23.5742 35.9277 23.6575 35.9277C23.7545 35.9277 23.8418 35.9073 23.9194 35.8666C23.9989 35.8258 24.0716 35.7667 24.1375 35.6891L24.5041 36.0207C24.4052 36.1429 24.2811 36.238 24.1317 36.3058C23.9843 36.3718 23.8166 36.4047 23.6285 36.4047Z" fill="white"/>
<path d="M24.657 36.364L25.5559 34.3277H26.1232L27.025 36.364H26.4257L25.7217 34.6098H25.9486L25.2446 36.364H24.657ZM25.1486 35.9684L25.297 35.5437H26.2919L26.4403 35.9684H25.1486Z" fill="white"/>
<path d="M28.0785 36.4047C27.9117 36.4047 27.7507 36.3844 27.5956 36.3437C27.4424 36.301 27.3173 36.2467 27.2203 36.1807L27.4094 35.756C27.5005 35.8142 27.6053 35.8627 27.7236 35.9015C27.8438 35.9383 27.9631 35.9567 28.0814 35.9567C28.1609 35.9567 28.2249 35.95 28.2734 35.9364C28.3219 35.9209 28.3568 35.9015 28.3781 35.8782C28.4014 35.853 28.413 35.8239 28.413 35.7909C28.413 35.7444 28.3917 35.7075 28.349 35.6804C28.3064 35.6532 28.2511 35.6309 28.1832 35.6135C28.1153 35.596 28.0397 35.5786 27.9563 35.5611C27.8748 35.5437 27.7924 35.5214 27.709 35.4942C27.6276 35.467 27.5529 35.4321 27.485 35.3895C27.4171 35.3449 27.3619 35.2877 27.3192 35.2178C27.2765 35.1461 27.2552 35.0559 27.2552 34.9473C27.2552 34.8251 27.2882 34.7146 27.3541 34.6157C27.422 34.5167 27.5228 34.4372 27.6567 34.3771C27.7905 34.317 27.9573 34.2869 28.157 34.2869C28.2908 34.2869 28.4218 34.3024 28.5498 34.3335C28.6797 34.3626 28.7951 34.4062 28.8959 34.4644L28.7185 34.892C28.6215 34.8397 28.5255 34.8009 28.4305 34.7757C28.3354 34.7485 28.2433 34.7349 28.1541 34.7349C28.0746 34.7349 28.0106 34.7437 27.9621 34.7611C27.9136 34.7766 27.8787 34.798 27.8574 34.8251C27.8361 34.8523 27.8254 34.8833 27.8254 34.9182C27.8254 34.9628 27.8458 34.9987 27.8865 35.0258C27.9291 35.051 27.9844 35.0724 28.0523 35.0898C28.1221 35.1054 28.1978 35.1218 28.2792 35.1393C28.3626 35.1567 28.445 35.179 28.5265 35.2062C28.6099 35.2314 28.6855 35.2663 28.7534 35.3109C28.8213 35.3536 28.8756 35.4108 28.9163 35.4826C28.959 35.5524 28.9803 35.6406 28.9803 35.7473C28.9803 35.8656 28.9464 35.9752 28.8785 36.076C28.8125 36.1749 28.7127 36.2544 28.5788 36.3146C28.447 36.3747 28.2802 36.4047 28.0785 36.4047Z" fill="white"/>
</svg>
