<svg width="100" height="17" viewBox="41 6 100 17" fill="none" xmlns="http://www.w3.org/2000/svg">
  <path d="M81.7949 10.2916V18.6984C81.796 19.6822 82.1961 20.6254 82.9077 21.321C83.6192 22.0167 84.5837 22.4079 85.59 22.409H94.3787V20.6854C94.3769 20.5537 94.3225 20.4279 94.2271 20.3347C94.1318 20.2415 94.0032 20.1884 93.8683 20.1864H85.59C85.2316 20.186 84.8882 20.0466 84.6348 19.7989C84.3814 19.5512 84.239 19.2154 84.2385 18.8651V15.601H92.1811C92.316 15.5991 92.4446 15.5459 92.5399 15.4527C92.6353 15.3595 92.6895 15.2337 92.6915 15.102V13.3784H85.0251C84.7527 13.3763 84.4835 13.4355 84.2385 13.5516V10.134C84.239 9.78372 84.3814 9.44796 84.6348 9.20038C84.8882 8.95278 85.2316 8.8136 85.59 8.81339H93.8683C94.0032 8.8115 94.1318 8.75832 94.2271 8.66514C94.3225 8.57197 94.3769 8.44614 94.3787 8.31438V6.59082H85.59C84.5855 6.59211 83.6226 6.98211 82.9115 7.67559C82.2004 8.36904 81.7989 9.30955 81.7949 10.2916Z" fill="#F3F4F5"/>
  <path d="M108.433 7.09112C108.433 7.47787 108.513 15.5758 108.666 18.5472L101.49 7.74287C101.294 7.40661 101.021 7.12561 100.695 6.92472C100.37 6.7238 100.001 6.60913 99.623 6.59082H97.3785C97.2515 6.59253 97.1298 6.64566 97.0398 6.73895C96.9498 6.83225 96.8985 6.9583 96.8965 7.09032V22.409H98.7201C98.8471 22.4073 98.9686 22.3541 99.0586 22.2608C99.1483 22.1675 99.1997 22.0415 99.2012 21.9095V8.8126H99.3106C99.3778 8.81826 99.443 8.83982 99.5011 8.87563C99.5591 8.91143 99.6082 8.96052 99.6453 9.01915L108.232 22.047C108.292 22.1499 108.374 22.2363 108.473 22.2986C108.572 22.361 108.684 22.3975 108.8 22.4049H110.739V6.59082H108.915C108.788 6.59253 108.666 6.6458 108.577 6.73926C108.486 6.83271 108.435 6.95896 108.433 7.09112Z" fill="#F3F4F5"/>
  <path d="M60.005 6.59082H57.8867V20.4077C57.8872 20.9384 58.0899 21.4472 58.4505 21.8224C58.8113 22.1976 59.3002 22.4086 59.8104 22.409H67.9539V20.2019H60.005V6.59082Z" fill="#F3F4F5"/>
  <path d="M65.4355 8.79807H71.9526V22.409H74.2125V8.79807H80.5364V6.59082H65.4355V8.79807Z" fill="#F3F4F5"/>
  <path d="M137.552 16.7907C139.501 16.1296 140.611 14.3398 140.611 11.8299C140.611 8.54894 138.771 6.59106 135.692 6.59106H131.712C131.159 6.59106 130.611 6.70763 130.1 6.93408C129.589 7.16056 129.125 7.4925 128.734 7.91094C128.342 8.32941 128.032 8.82617 127.821 9.37292C127.609 9.91966 127.5 10.5056 127.5 11.0974V22.4093H129.093C129.155 22.4093 129.216 22.3962 129.273 22.371C129.33 22.3457 129.382 22.3087 129.425 22.262C129.469 22.2153 129.504 22.1599 129.527 22.0989C129.551 22.0379 129.563 21.9725 129.563 21.9065V17.0671H135.257L138.356 22.1304C138.408 22.2155 138.479 22.2854 138.562 22.3338C138.646 22.3822 138.74 22.4075 138.835 22.4076H141L137.552 16.7907ZM129.562 14.8615V11.0974C129.522 10.7858 129.55 10.4685 129.644 10.1703C129.738 9.87216 129.895 9.60127 130.102 9.37883C130.31 9.1564 130.564 8.98846 130.842 8.88817C131.121 8.78789 131.417 8.75797 131.709 8.80077H135.689C137.557 8.80077 138.545 9.84903 138.545 11.8357C138.545 13.8222 137.557 14.8705 135.689 14.8705L129.562 14.8615Z" fill="#F3F4F5"/>
  <path d="M53.2526 17.4686C53.1742 17.2851 53.0467 17.1292 52.8855 17.0197C52.7246 16.9102 52.5363 16.8518 52.3441 16.8515H46.5799L49.9722 9.15027L49.1818 6.72212C49.1704 6.68608 49.149 6.65439 49.1204 6.6311C49.0916 6.6078 49.057 6.59396 49.0208 6.59129C48.9844 6.58863 48.9483 6.59728 48.9168 6.61613C48.8853 6.635 48.8599 6.66325 48.8438 6.69726L48.3584 7.70461L41.8105 22.409H43.8092C43.905 22.4092 43.999 22.3805 44.0796 22.3265C44.1604 22.2725 44.2245 22.1955 44.2647 22.1045L45.6284 19.008H53.9081L53.2526 17.4686Z" fill="#F3F4F5"/>
  <path d="M118.245 6.6824C118.231 6.65324 118.209 6.62905 118.182 6.61287C118.155 6.59669 118.123 6.58923 118.092 6.59145C118.061 6.59367 118.031 6.60546 118.006 6.62534C117.982 6.64522 117.963 6.67232 117.953 6.70319L117.144 9.18164L120.536 16.8648H114.772C114.58 16.8649 114.392 16.9232 114.23 17.0324C114.069 17.1416 113.941 17.2972 113.863 17.4804L113.209 19.0162H121.489L122.852 22.1055C122.893 22.1962 122.957 22.273 123.037 22.3269C123.118 22.3807 123.212 22.4093 123.308 22.4093H125.307L118.759 7.73934L118.245 6.6824Z" fill="#F3F4F5"/>
</svg>
