<svg width="38" height="29" viewBox="0 0 38 29" fill="none" xmlns="http://www.w3.org/2000/svg">
  <path d="M11.3307 8.60372e-05C10.7534 -0.00407516 10.1843 0.142767 9.67495 0.427299C9.16555 0.711832 8.73204 1.12506 8.41366 1.6295C8.32014 1.77967 1.11454 13.2465 0.747325 13.9034C0.467951 14.356 0.254536 14.8497 0.114093 15.3682C-0.0343007 15.9478 -0.0380021 16.5575 0.103355 17.139C0.216708 17.5565 0.381919 17.9566 0.594761 18.3291C1.69028 20.3552 2.59644 21.7863 3.68508 23.8172C4.19488 24.7005 4.64183 25.6248 5.15855 26.5051C5.02644 25.5575 5.24323 24.5925 5.76495 23.806C6.30161 22.8142 19.6725 1.42793 19.9209 1.0794C20.134 0.781855 20.4027 0.532763 20.7105 0.347233C21.0184 0.161704 21.359 0.0435973 21.7117 8.60372e-05C21.7117 8.60372e-05 12.8686 0.00410133 11.3307 8.60372e-05Z" fill="#00A7DA"/>
  <path d="M37.6234 27.1209L37.9078 26.88C37.9078 26.88 24.6741 2.53121 24.165 1.63097C23.9223 1.18344 23.5401 0.836767 23.0826 0.648838C22.7386 0.508536 22.3662 0.461551 22.0003 0.512234C21.6343 0.562914 21.2864 0.709612 20.989 0.938735C20.7384 1.14015 20.5178 1.37939 20.3343 1.64864C19.7869 2.46374 15.8203 8.84164 15.8203 8.84164L37.6234 27.1209Z" fill="#00A7DA"/>
  <path d="M26.5087 19.6858H9.15452C9.15452 19.6858 5.95612 24.534 5.85797 25.4501C5.75111 26.2211 5.88561 27.0074 6.24129 27.6915C7.103 29.2261 8.95901 29.3545 10.6402 28.3709C13.9506 26.4244 26.5096 20.0383 26.5096 20.0383L26.5087 19.6858Z" fill="#00A7DA"/>
</svg>
